<?xml version="1.0" standalone="no"?>
<!DOCTYPE svg PUBLIC "-//W3C//DTD SVG 20010904//EN"
 "http://www.w3.org/TR/2001/REC-SVG-20010904/DTD/svg10.dtd">
<svg version="1.0" xmlns="http://www.w3.org/2000/svg"
 width="981.000000pt" height="966.000000pt" viewBox="0 0 981.000000 966.000000"
 preserveAspectRatio="xMidYMid meet">

<g transform="translate(0.000000,966.000000) scale(0.100000,-0.100000)"
fill="#000000" stroke="none">
<path d="M6797 9610 c-15 -26 -27 -53 -27 -59 0 -6 -13 -30 -30 -53 -16 -22
-30 -47 -30 -54 0 -7 -10 -25 -23 -41 -30 -37 -41 -62 -72 -165 -14 -48 -30
-90 -34 -93 -5 -2 -12 -22 -16 -42 -4 -21 -15 -54 -25 -73 -23 -46 -87 -182
-116 -245 -12 -27 -36 -80 -53 -117 -17 -36 -31 -69 -31 -73 0 -4 -18 -55 -39
-114 -22 -58 -45 -131 -52 -161 -17 -76 -57 -209 -74 -245 -7 -16 -23 -70 -35
-120 -12 -49 -40 -130 -62 -180 -22 -49 -44 -107 -49 -129 -5 -21 -23 -67 -39
-102 -17 -35 -30 -66 -30 -69 0 -3 -18 -41 -39 -84 -22 -44 -42 -89 -46 -101
-4 -11 -17 -32 -31 -47 -13 -14 -29 -43 -34 -64 -6 -21 -15 -41 -19 -44 -9 -5
-57 -101 -94 -185 -8 -19 -31 -69 -50 -110 -42 -90 -83 -188 -104 -250 -8 -25
-31 -79 -50 -120 -36 -77 -54 -125 -104 -270 -16 -47 -35 -98 -43 -115 -8 -16
-17 -41 -21 -55 -4 -14 -20 -43 -35 -65 -15 -22 -29 -48 -33 -57 -4 -10 -11
-18 -17 -18 -5 0 -10 -6 -10 -14 0 -8 -8 -21 -18 -28 -24 -17 -54 -64 -74
-113 -102 -252 -154 -414 -178 -553 -13 -74 -60 -173 -95 -201 -14 -10 -25
-24 -25 -30 0 -14 -31 -52 -90 -111 -25 -25 -51 -53 -59 -63 -12 -15 -11 -16
20 -6 19 7 38 16 43 20 21 19 44 9 50 -22 11 -57 6 -78 -27 -114 -30 -32 -47
-40 -158 -69 -136 -35 -213 -67 -279 -115 -23 -17 -49 -31 -57 -31 -7 0 -13
-4 -13 -9 0 -5 -21 -17 -47 -27 -59 -21 -143 -58 -203 -88 -25 -13 -83 -35
-130 -50 -47 -15 -101 -36 -120 -46 -19 -9 -66 -30 -105 -44 -38 -15 -101 -43
-138 -62 -67 -34 -232 -94 -258 -94 -8 0 -59 -22 -114 -48 -55 -27 -125 -57
-155 -67 -30 -10 -91 -36 -135 -58 -139 -70 -148 -74 -240 -112 -49 -20 -103
-43 -120 -50 -16 -7 -70 -25 -120 -40 -49 -15 -94 -32 -100 -36 -5 -5 -15 -9
-22 -9 -12 0 -85 -30 -125 -51 -10 -5 -25 -9 -33 -9 -9 0 -26 -7 -38 -15 -13
-8 -48 -23 -78 -33 -245 -85 -296 -107 -384 -167 -67 -45 -114 -67 -195 -90
-30 -9 -82 -25 -115 -37 -133 -46 -234 -79 -315 -104 -97 -30 -191 -79 -184
-97 2 -7 -15 -25 -38 -40 -79 -52 -113 -78 -121 -93 -4 -8 -12 -14 -16 -14
-16 0 -305 -278 -360 -345 -46 -57 -142 -255 -170 -350 -12 -44 -36 -123 -52
-176 -38 -124 -48 -247 -25 -314 12 -38 16 -89 16 -229 1 -148 5 -201 24 -290
l22 -108 57 -52 c31 -29 60 -64 66 -77 5 -14 32 -61 60 -103 28 -43 53 -94 57
-114 4 -20 18 -59 30 -87 13 -27 24 -58 24 -68 0 -10 6 -20 14 -23 8 -3 20
-19 26 -35 7 -16 16 -29 21 -29 5 0 9 -8 9 -18 0 -16 41 -62 56 -62 3 0 17 -9
31 -20 14 -11 33 -20 42 -20 9 0 22 -9 29 -20 7 -11 17 -20 22 -20 6 0 19 -9
29 -19 11 -11 37 -25 58 -30 21 -6 65 -33 98 -61 32 -27 68 -53 80 -56 11 -4
22 -10 25 -13 3 -4 37 -15 75 -25 39 -10 116 -34 173 -52 93 -31 113 -34 220
-34 64 0 133 4 152 9 19 5 103 15 187 21 85 6 168 17 187 25 20 8 57 15 83 15
26 1 64 7 83 15 19 7 64 24 100 37 36 14 76 31 90 40 14 9 39 19 55 22 17 4
48 15 70 25 22 10 58 26 80 36 47 21 217 83 260 94 17 5 55 20 85 34 92 42
132 57 152 57 10 0 38 9 60 20 23 11 48 20 55 20 8 0 16 7 19 15 4 8 14 15 23
15 18 0 110 43 151 70 42 29 209 80 292 91 50 6 98 20 132 37 29 15 94 48 144
74 51 27 103 48 117 48 30 0 165 66 165 80 0 6 8 10 18 10 11 0 38 14 60 30
23 16 45 30 49 30 15 0 288 92 299 101 5 4 36 15 68 23 62 16 220 89 231 106
9 15 81 50 103 50 10 0 27 9 37 20 10 11 27 22 39 26 11 3 44 16 71 29 28 12
70 29 95 36 25 7 50 16 55 20 6 4 44 10 85 14 47 4 99 18 140 35 79 35 169 39
414 22 156 -12 206 -8 255 18 23 13 158 40 196 40 52 0 274 39 350 61 100 29
125 39 170 69 22 15 60 35 84 46 25 10 63 29 85 41 23 12 63 33 89 47 48 25
147 85 157 96 3 3 28 23 55 44 60 47 195 186 195 201 0 10 66 111 77 118 7 4
13 15 13 22 0 8 5 15 10 15 6 0 10 7 10 16 0 9 9 31 20 49 24 39 43 124 64
285 9 69 21 155 26 193 6 37 10 84 10 105 0 21 5 43 11 49 8 8 13 91 15 257 2
135 8 265 14 288 5 24 10 58 10 76 0 18 9 53 20 77 11 24 35 82 54 128 19 47
43 102 54 123 11 22 32 68 47 104 23 58 43 99 113 235 12 22 38 83 58 135 20
52 41 100 45 105 4 6 14 28 22 50 24 67 115 281 152 359 19 41 35 81 35 89 0
12 14 49 59 152 5 11 19 43 31 70 12 28 34 77 49 110 16 33 37 83 46 110 10
28 27 62 37 77 10 14 18 30 18 35 0 4 23 62 50 128 28 66 60 147 72 180 11 33
31 83 44 111 13 28 24 54 24 58 0 4 21 51 46 104 25 53 73 164 106 247 33 82
67 155 74 163 8 7 14 23 14 34 0 12 33 89 74 172 103 211 188 431 236 606 10
36 25 81 33 101 9 19 22 64 31 100 18 80 39 125 98 214 25 39 49 81 53 95 4
14 43 96 86 182 43 87 79 166 79 176 0 10 8 36 19 58 28 60 34 141 13 186 -9
21 -24 38 -33 38 -33 0 -183 42 -218 60 -20 10 -56 28 -81 40 -25 12 -52 26
-61 30 -9 5 -52 16 -96 24 -95 18 -112 24 -186 69 -32 20 -77 39 -99 42 -22 4
-63 17 -92 30 -28 12 -67 26 -86 30 -34 7 -114 44 -253 119 -38 20 -75 36 -82
36 -8 0 -53 18 -100 40 -47 22 -89 40 -94 40 -4 0 -26 13 -48 29 -38 27 -57
35 -153 62 -56 16 -170 67 -190 84 -8 7 -63 20 -123 29 -59 9 -115 20 -125 26
-36 19 -231 100 -244 100 -7 0 -49 16 -93 35 -44 19 -83 35 -88 35 -18 0 -128
59 -155 83 -10 9 -53 28 -96 41 -43 14 -89 32 -102 41 -59 38 -68 37 -97 -15z
m198 -135 c60 -25 111 -47 113 -50 3 -2 -553 -1358 -563 -1373 -1 -1 -55 20
-121 47 -77 32 -118 54 -116 63 4 14 551 1338 559 1351 7 11 11 10 128 -38z
m526 -223 c5 -6 -548 -1353 -562 -1366 -5 -5 -215 76 -226 88 -2 2 400 981
550 1338 l16 37 108 -45 c59 -25 111 -48 114 -52z m307 -123 c53 -22 101 -44
105 -48 7 -7 -543 -1354 -558 -1369 -7 -7 -217 81 -221 93 -2 5 119 307 269
670 150 363 276 668 280 678 9 23 14 23 125 -24z m432 -179 c61 -25 94 -44 92
-53 -1 -7 -125 -310 -275 -673 -150 -362 -276 -667 -280 -676 -5 -15 -20 -11
-119 32 -74 31 -112 52 -110 61 4 16 540 1315 554 1342 11 21 9 21 138 -33z
m400 -166 c61 -25 110 -50 110 -54 0 -6 -559 -1362 -563 -1367 -1 0 -53 20
-115 45 -84 34 -112 50 -109 62 6 24 560 1360 564 1360 2 0 53 -21 113 -46z
m435 -179 c50 -20 91 -38 93 -40 4 -3 -557 -1358 -566 -1367 -4 -3 -57 14
-119 39 l-111 46 18 46 c10 25 134 325 275 666 142 341 261 630 266 642 9 26
-1 28 144 -32z m412 -171 l112 -47 -15 -36 c-8 -20 -128 -308 -266 -641 -137
-333 -259 -626 -270 -652 l-20 -46 -116 48 c-78 33 -117 54 -116 64 3 31 558
1356 568 1356 6 0 61 -21 123 -46z m-2527 -782 c399 -165 1008 -418 1354 -561
346 -143 630 -262 633 -264 2 -3 -810 -1975 -1102 -2674 l-14 -33 -68 27
c-211 82 -456 131 -693 140 -994 37 -1881 -626 -2129 -1590 -49 -190 -65 -320
-64 -537 0 -256 29 -437 103 -658 17 -52 30 -95 28 -97 -2 -1 -52 -23 -113
-48 -60 -25 -362 -149 -670 -277 -308 -128 -913 -378 -1345 -557 -432 -179
-815 -336 -851 -348 l-65 -22 -1 226 c-1 338 -38 603 -128 917 -163 566 -481
1090 -913 1499 l-96 91 105 46 c57 26 394 167 749 314 355 146 789 326 965
399 176 73 725 300 1220 505 495 205 905 377 912 384 8 7 1330 3185 1420 3414
3 8 13 12 22 9 9 -2 342 -139 741 -305z m238 -3573 c133 -14 305 -54 435 -99
60 -21 111 -41 114 -44 3 -3 -20 -67 -51 -143 l-55 -138 -4 -405 c-4 -370 -6
-413 -25 -498 -137 -595 -569 -1027 -1165 -1164 -85 -20 -128 -21 -580 -25
l-489 -5 -80 -34 c-44 -19 -85 -34 -92 -34 -21 0 -82 208 -112 385 -24 137
-24 442 0 580 124 734 607 1306 1296 1535 259 87 543 118 808 89z m-6303
-1540 c140 -145 223 -249 340 -424 164 -246 279 -479 368 -745 119 -354 178
-764 162 -1112 l-7 -147 -37 -5 c-265 -39 -573 15 -836 146 -421 211 -707 589
-802 1063 -26 135 -24 415 5 550 74 344 240 627 491 842 l74 63 66 -59 c36
-32 116 -110 176 -172z"/>
<path d="M8922 318 c-8 -8 -12 -47 -12 -108 0 -61 4 -100 12 -108 17 -17 759
-17 776 0 8 8 12 47 12 108 0 61 -4 100 -12 108 -17 17 -759 17 -776 0z m102
-54 c23 -9 20 -51 -4 -59 -11 -3 -20 -13 -20 -21 0 -8 -7 -14 -15 -14 -21 0
-20 64 1 84 18 18 17 18 38 10z m136 -44 c0 -27 -4 -50 -10 -50 -5 0 -10 23
-10 50 0 28 5 50 10 50 6 0 10 -22 10 -50z m350 0 c0 -27 -4 -50 -10 -50 -5 0
-10 23 -10 50 0 28 5 50 10 50 6 0 10 -22 10 -50z m-227 23 c10 -40 6 -73 -7
-73 -17 0 -26 22 -26 61 0 32 26 41 33 12z m106 -5 c-8 -14 -8 -27 -1 -43 10
-21 8 -22 -28 -22 -36 0 -38 1 -29 19 6 11 8 30 5 43 -5 21 -2 23 29 23 32 0
34 -2 24 -20z m84 -20 c6 -48 4 -53 -18 -45 -20 8 -21 87 -1 87 8 0 16 -16 19
-42z m80 25 c8 -31 7 -73 -1 -73 -18 0 -32 26 -32 57 0 36 25 47 33 16z m-433
-22 c19 -37 13 -53 -21 -49 -39 4 -59 29 -40 52 18 22 48 20 61 -3z m118 -18
c2 -25 -1 -33 -12 -33 -10 0 -17 9 -17 23 l-2 22 -4 -22 c-6 -33 -23 -28 -23
5 0 35 8 44 35 40 15 -2 21 -12 23 -35z m400 15 c3 -13 -3 -18 -19 -18 -22 0
-22 0 -3 -15 18 -14 18 -14 -8 -15 -31 0 -47 32 -27 56 16 19 53 14 57 -8z"/>
<path d="M9085 200 c3 -5 8 -10 11 -10 2 0 4 5 4 10 0 6 -5 10 -11 10 -5 0 -7
-4 -4 -10z"/>
</g>
</svg>
