<?xml version="1.0" standalone="no"?>
<!DOCTYPE svg PUBLIC "-//W3C//DTD SVG 20010904//EN"
 "http://www.w3.org/TR/2001/REC-SVG-20010904/DTD/svg10.dtd">
<svg version="1.0" xmlns="http://www.w3.org/2000/svg"
 width="1334.000000pt" height="1202.000000pt" viewBox="0 0 1334.000000 1202.000000"
 preserveAspectRatio="xMidYMid meet">

<g transform="translate(0.000000,1202.000000) scale(0.100000,-0.100000)"
fill="#000000" stroke="none">
<path d="M10017 10263 c-2 -5 -478 -1151 -1057 -2549 l-1052 -2541 -1456 -603
c-2660 -1102 -2408 -993 -2587 -1114 -132 -88 -342 -301 -434 -440 -271 -408
-355 -877 -240 -1346 138 -564 554 -1015 1106 -1200 382 -127 794 -112 1180
44 99 40 2696 1116 3067 1270 l158 66 417 0 c508 0 613 11 841 86 255 84 460
212 661 413 190 191 304 365 392 601 90 241 107 367 107 812 l0 347 1006 2428
c553 1335 1010 2430 1015 2431 12 5 12 22 -1 22 -9 0 -1183 485 -2752 1136
-191 79 -352 144 -357 144 -5 0 -12 -3 -14 -7z m238 -298 c60 -25 111 -47 113
-50 3 -2 -553 -1358 -563 -1373 -1 -1 -55 20 -121 47 -77 32 -118 54 -116 63
4 14 551 1338 559 1351 7 11 11 10 128 -38z m526 -223 c5 -6 -548 -1353 -562
-1366 -5 -5 -215 76 -226 88 -2 2 400 981 550 1338 l16 37 108 -45 c59 -25
111 -48 114 -52z m307 -123 c53 -22 101 -44 105 -48 7 -7 -543 -1354 -558
-1369 -7 -7 -217 81 -221 93 -2 5 119 307 269 670 150 363 276 668 280 678 9
23 14 23 125 -24z m432 -179 c61 -25 94 -44 92 -53 -1 -7 -125 -310 -275 -673
-150 -362 -276 -667 -280 -676 -5 -15 -20 -11 -119 32 -74 31 -112 52 -110 61
4 16 540 1315 554 1342 11 21 9 21 138 -33z m400 -166 c61 -25 110 -50 110
-54 0 -6 -559 -1362 -563 -1367 -1 0 -53 20 -115 45 -84 34 -112 50 -109 62 6
24 560 1360 564 1360 2 0 53 -21 113 -46z m435 -179 c50 -20 91 -38 93 -40 4
-3 -557 -1358 -566 -1367 -4 -3 -57 14 -119 39 l-111 46 18 46 c10 25 134 325
275 666 142 341 261 630 266 642 9 26 -1 28 144 -32z m412 -171 l112 -47 -15
-36 c-8 -20 -128 -308 -266 -641 -137 -333 -259 -626 -270 -652 l-20 -46 -116
48 c-78 33 -117 54 -116 64 3 31 558 1356 568 1356 6 0 61 -21 123 -46z
m-2527 -782 c399 -165 1008 -418 1354 -561 346 -143 630 -262 633 -264 2 -3
-810 -1975 -1102 -2674 l-14 -33 -68 27 c-211 82 -456 131 -693 140 -994 37
-1881 -626 -2129 -1590 -49 -190 -65 -320 -64 -537 0 -256 29 -437 103 -658
17 -52 30 -95 28 -97 -2 -1 -52 -23 -113 -48 -60 -25 -362 -149 -670 -277
-308 -128 -913 -378 -1345 -557 -432 -179 -815 -336 -851 -348 l-65 -22 -1
226 c-1 338 -38 603 -128 917 -163 566 -481 1090 -913 1499 l-96 91 105 46
c57 26 394 167 749 314 355 146 789 326 965 399 176 73 725 300 1220 505 495
205 905 377 912 384 8 7 1330 3185 1420 3414 3 8 13 12 22 9 9 -2 342 -139
741 -305z m238 -3573 c133 -14 305 -54 435 -99 60 -21 111 -41 114 -44 3 -3
-20 -67 -51 -143 l-55 -138 -4 -405 c-4 -370 -6 -413 -25 -498 -137 -595 -569
-1027 -1165 -1164 -85 -20 -128 -21 -580 -25 l-489 -5 -80 -34 c-44 -19 -85
-34 -92 -34 -21 0 -82 208 -112 385 -24 137 -24 442 0 580 124 734 607 1306
1296 1535 259 87 543 118 808 89z m-6303 -1540 c140 -145 223 -249 340 -424
164 -246 279 -479 368 -745 119 -354 178 -764 162 -1112 l-7 -147 -37 -5
c-265 -39 -573 15 -836 146 -421 211 -707 589 -802 1063 -26 135 -24 415 5
550 74 344 240 627 491 842 l74 63 66 -59 c36 -32 116 -110 176 -172z"/>
<path d="M7346 531 c-4 -7 -5 -15 -2 -18 9 -9 19 4 14 18 -4 11 -6 11 -12 0z"/>
<path d="M7430 536 c0 -3 5 -17 12 -31 8 -18 14 -22 20 -13 4 7 7 20 7 28 0
10 -3 8 -9 -5 -7 -16 -9 -17 -9 -3 -1 15 -21 38 -21 24z"/>
<path d="M7491 524 c0 -11 3 -14 6 -6 3 7 2 16 -1 19 -3 4 -6 -2 -5 -13z"/>
<path d="M7526 520 c3 -14 10 -29 15 -34 14 -16 10 6 -7 34 l-15 25 7 -25z"/>
<path d="M7551 524 c0 -11 3 -14 6 -6 3 7 2 16 -1 19 -3 4 -6 -2 -5 -13z"/>
<path d="M7614 510 c1 -24 36 -44 36 -21 0 6 -6 8 -14 5 -10 -4 -16 3 -19 18
-4 22 -4 21 -3 -2z"/>
<path d="M7728 533 c6 -2 18 -2 25 0 6 3 1 5 -13 5 -14 0 -19 -2 -12 -5z"/>
<path d="M7781 508 c2 -30 2 -31 6 -5 2 15 9 27 15 27 5 0 8 -6 5 -14 -3 -8 2
-20 11 -28 13 -11 14 -11 7 2 -5 8 -10 22 -10 30 0 8 -8 16 -17 18 -15 3 -18
-3 -17 -30z"/>
<path d="M7871 520 c14 -31 19 -36 19 -24 0 6 -7 19 -16 30 -14 18 -14 18 -3
-6z"/>
<path d="M7916 531 c-4 -5 3 -7 14 -4 23 6 26 13 6 13 -8 0 -17 -4 -20 -9z"/>
<path d="M7980 536 c0 -2 9 -6 20 -9 11 -3 18 -1 14 4 -5 9 -34 13 -34 5z"/>
<path d="M8106 531 c-3 -5 3 -7 14 -4 16 4 20 0 20 -17 0 -18 -4 -21 -21 -17
-16 4 -19 3 -11 -5 17 -17 44 -1 40 24 -3 24 -32 36 -42 19z"/>
<path d="M8171 508 c2 -30 2 -31 6 -5 2 15 9 27 15 27 5 0 8 -6 5 -14 -3 -8 2
-20 11 -28 13 -11 14 -11 7 2 -5 8 -10 22 -10 30 0 8 -8 16 -17 18 -15 3 -18
-3 -17 -30z"/>
<path d="M8235 510 c0 -16 3 -30 8 -30 4 0 7 14 7 30 0 17 -3 30 -7 30 -5 0
-8 -13 -8 -30z"/>
<path d="M8280 530 c0 -5 5 -10 11 -10 5 0 7 5 4 10 -3 6 -8 10 -11 10 -2 0
-4 -4 -4 -10z"/>
<path d="M8356 531 c-4 -5 3 -7 14 -4 23 6 26 13 6 13 -8 0 -17 -4 -20 -9z"/>
<path d="M8428 533 c7 -3 16 -2 19 1 4 3 -2 6 -13 5 -11 0 -14 -3 -6 -6z"/>
<path d="M8480 519 c-7 -11 -10 -23 -7 -25 2 -2 9 7 15 21 14 30 7 33 -8 4z"/>
<path d="M8546 531 c-4 -5 3 -7 14 -4 23 6 26 13 6 13 -8 0 -17 -4 -20 -9z"/>
<path d="M8618 533 c7 -3 16 -2 19 1 4 3 -2 6 -13 5 -11 0 -14 -3 -6 -6z"/>
<path d="M8678 533 c6 -2 18 -2 25 0 6 3 1 5 -13 5 -14 0 -19 -2 -12 -5z"/>
<path d="M8776 531 c-4 -5 3 -7 14 -4 23 6 26 13 6 13 -8 0 -17 -4 -20 -9z"/>
<path d="M8834 525 c-13 -32 23 -63 40 -36 4 5 -3 7 -14 4 -16 -4 -20 0 -20
17 0 17 4 21 20 17 11 -3 18 -1 14 4 -8 14 -34 11 -40 -6z"/>
<path d="M8900 508 c0 -36 4 -35 14 5 4 16 2 27 -4 27 -5 0 -10 -14 -10 -32z"/>
<path d="M8931 517 c-13 -21 -12 -21 5 -5 10 10 16 20 13 22 -3 3 -11 -5 -18
-17z"/>
<path d="M7320 508 c0 -9 5 -20 10 -23 13 -8 13 5 0 25 -8 13 -10 13 -10 -2z"/>
<path d="M7366 504 c-4 -9 -4 -19 -1 -22 2 -3 7 3 11 12 4 9 4 19 1 22 -2 3
-7 -3 -11 -12z"/>
<path d="M7847 501 c-4 -17 -3 -21 5 -13 5 5 8 16 6 23 -3 8 -7 3 -11 -10z"/>
<path d="M8500 506 c0 -8 4 -17 9 -20 5 -4 7 3 4 14 -6 23 -13 26 -13 6z"/>
<path d="M8618 513 c7 -3 16 -2 19 1 4 3 -2 6 -13 5 -11 0 -14 -3 -6 -6z"/>
<path d="M7410 496 c0 -9 5 -16 10 -16 6 0 10 4 10 9 0 6 -4 13 -10 16 -5 3
-10 -1 -10 -9z"/>
<path d="M7507 503 c-4 -3 -7 -11 -7 -17 0 -6 5 -5 12 2 6 6 9 14 7 17 -3 3
-9 2 -12 -2z"/>
<path d="M8306 497 c3 -10 9 -15 12 -12 3 3 0 11 -7 18 -10 9 -11 8 -5 -6z"/>
<path d="M8386 498 c5 -8 0 -9 -16 -5 -16 4 -20 3 -12 -5 6 -6 18 -8 26 -5 18
7 22 27 5 27 -5 0 -7 -5 -3 -12z"/>
<path d="M8576 498 c5 -8 0 -9 -16 -5 -16 4 -20 3 -12 -5 6 -6 18 -8 26 -5 18
7 22 27 5 27 -5 0 -7 -5 -3 -12z"/>
<path d="M8695 501 c3 -5 -2 -12 -10 -14 -12 -4 -12 -5 1 -3 19 1 32 26 14 26
-6 0 -9 -4 -5 -9z"/>
<path d="M7918 488 c5 -5 16 -8 23 -6 8 3 3 7 -10 11 -17 4 -21 3 -13 -5z"/>
<path d="M7995 490 c-16 -7 -17 -9 -3 -9 9 -1 20 4 23 9 7 11 7 11 -20 0z"/>
<path d="M8778 488 c5 -5 16 -8 23 -6 8 3 3 7 -10 11 -17 4 -21 3 -13 -5z"/>
<path d="M7688 483 c7 -3 16 -2 19 1 4 3 -2 6 -13 5 -11 0 -14 -3 -6 -6z"/>
<path d="M8058 483 c7 -3 16 -2 19 1 4 3 -2 6 -13 5 -11 0 -14 -3 -6 -6z"/>
<path d="M8618 483 c7 -3 16 -2 19 1 4 3 -2 6 -13 5 -11 0 -14 -3 -6 -6z"/>
<path d="M12456 314 c-20 -19 -23 -193 -4 -212 17 -17 759 -17 776 0 8 8 12
47 12 108 0 61 -4 100 -12 108 -9 9 -108 12 -384 12 -325 0 -375 -2 -388 -16z
m108 -60 c21 -21 20 -31 -4 -46 -11 -7 -20 -18 -20 -25 0 -7 -9 -13 -20 -13
-16 0 -20 7 -20 34 0 32 20 66 40 66 5 0 16 -7 24 -16z m134 -37 c3 -38 0 -47
-12 -47 -13 0 -16 10 -15 50 3 64 22 61 27 -3z m390 22 c10 -15 16 -16 31 -7
10 6 26 8 35 5 21 -8 21 -37 -1 -38 -11 0 -13 -3 -5 -6 19 -7 14 -23 -7 -23
-11 0 -27 10 -36 23 l-17 22 7 -22 c8 -28 -19 -32 -34 -5 -10 16 -10 16 -11 0
0 -24 -65 -25 -74 -2 -12 31 -7 74 9 74 10 0 15 -10 15 -30 0 -16 5 -30 10
-30 9 0 15 28 11 58 -3 19 51 3 67 -19z m-275 4 c8 -31 7 -73 -1 -73 -18 0
-32 26 -32 57 0 36 25 47 33 16z m106 -4 c-6 -13 -6 -25 1 -38 15 -28 14 -29
-30 -29 -39 -1 -39 0 -25 21 9 15 11 27 5 37 -15 24 -12 28 25 28 31 0 34 -2
24 -19z m-271 -11 c7 -7 12 -22 12 -35 0 -19 -5 -23 -29 -23 -38 0 -56 22 -41
49 12 23 40 27 58 9z m120 -25 c3 -31 1 -33 -27 -33 -27 0 -31 3 -31 28 0 35
8 44 35 40 15 -2 21 -12 23 -35z"/>
</g>
</svg>
