<?xml version="1.0" standalone="no"?>

<!DOCTYPE svg PUBLIC "-//W3C//DTD SVG 20010904//EN"
 "http://www.w3.org/TR/2001/REC-SVG-20010904/DTD/svg10.dtd">

<svg   version="1.0" xmlns="http://www.w3.org/2000/svg"
 width="706.000000pt" height="720.000000pt" viewBox="0 0 706.000000 720.000000"
 preserveAspectRatio="xMidYMid meet">

<g transform="translate(0.000000,720.000000) scale(0.100000,-0.100000)">
<path d="M4783 6902 c-16 -11 -49 -83 -185 -412 -17 -41 -46 -109 -64 -150
-18 -41 -89 -214 -157 -385 -239 -594 -276 -683 -542 -1310 -35 -82 -100 -240
-145 -350 -45 -110 -107 -261 -138 -335 -30 -74 -85 -209 -122 -300 -61 -153
-69 -166 -101 -182 -45 -22 -210 -91 -414 -173 -235 -94 -468 -191 -590 -245
-51 -23 -171 -72 -290 -120 -370 -148 -486 -196 -855 -355 -69 -30 -177 -75
-240 -100 -149 -60 -248 -113 -337 -181 -474 -362 -581 -1037 -245 -1554 221
-341 634 -533 1057 -490 173 17 203 27 610 190 74 29 224 92 535 225 117 50
236 98 408 166 40 16 132 54 205 85 324 137 518 219 589 250 153 66 166 68
436 60 347 -9 499 17 707 121 121 60 193 113 298 219 159 160 267 354 308 554
6 30 15 73 19 95 5 22 9 142 10 266 1 124 5 244 11 267 7 33 66 183 109 277
19 43 92 220 184 450 52 132 116 290 142 350 25 61 63 151 84 200 20 50 76
181 124 292 47 110 102 243 120 295 33 87 70 179 200 486 30 70 86 204 126
297 40 94 97 235 127 315 30 80 70 178 89 219 19 41 34 81 34 91 0 18 -10 23
-170 86 -52 20 -124 50 -160 66 -36 17 -101 45 -145 63 -44 18 -123 52 -175
75 -190 84 -372 158 -640 259 -41 16 -133 54 -205 86 -264 116 -541 232 -575
239 -14 4 -30 3 -37 -2z m37 -190 c0 -20 -45 -165 -64 -207 -8 -16 -30 -65
-50 -107 -20 -42 -36 -80 -36 -83 0 -3 -11 -28 -25 -57 -14 -28 -25 -57 -25
-64 0 -15 -39 -64 -51 -64 -17 0 -10 25 71 249 79 219 118 310 147 343 18 20
33 15 33 -10z m130 -42 c22 -11 40 -26 40 -32 0 -12 -93 -251 -132 -338 -11
-25 -24 -54 -29 -65 -35 -81 -153 -379 -165 -418 -8 -26 -22 -51 -30 -54 -13
-5 -104 29 -127 47 -4 4 8 42 26 86 71 162 287 672 287 677 0 2 11 30 25 61
28 64 42 68 105 36z m158 -92 c2 -13 -15 -69 -36 -124 -53 -134 -162 -393
-202 -479 -17 -38 -48 -108 -67 -155 -38 -94 -54 -116 -77 -107 -23 9 -30 34
-19 60 6 12 16 50 22 85 7 34 36 121 66 192 30 71 55 132 55 134 0 3 26 62 59
133 32 70 71 159 87 197 16 38 37 77 47 87 25 23 61 11 65 -23z m107 -18 c24
-11 46 -24 49 -28 7 -12 -101 -296 -220 -577 -31 -71 -69 -164 -86 -205 -44
-104 -46 -106 -103 -84 -26 9 -49 23 -52 31 -5 12 81 233 184 473 25 58 65
152 88 210 65 159 84 200 90 200 3 0 26 -9 50 -20z m170 -64 c19 -13 18 -17
-19 -112 -66 -169 -193 -473 -245 -589 -10 -22 -27 -62 -37 -89 -19 -47 -63
-106 -81 -106 -5 0 -17 6 -26 13 -16 11 -16 17 6 92 22 72 49 141 175 445 80
191 143 335 154 347 14 17 49 17 73 -1z m119 -56 c25 -10 46 -26 46 -34 0 -18
-57 -164 -105 -271 -37 -82 -168 -393 -205 -488 -23 -59 -45 -109 -49 -111 -6
-4 -105 35 -115 45 -3 3 47 128 110 279 64 151 145 348 181 438 38 96 70 162
78 162 7 0 34 -9 59 -20z m160 -50 c22 -22 -61 -250 -239 -657 -114 -259 -124
-273 -170 -239 -19 14 -19 15 -1 72 10 33 46 127 81 209 34 83 86 211 115 285
70 181 121 300 138 328 12 18 21 22 41 17 14 -4 30 -10 35 -15z m126 -70 c22
-11 40 -23 40 -25 0 -7 -88 -228 -182 -455 -47 -113 -102 -248 -123 -300 -48
-120 -53 -126 -96 -111 -18 6 -43 18 -55 26 l-22 14 48 118 c82 203 140 347
154 378 8 17 33 75 56 130 115 276 104 264 180 225z m139 -41 c19 -7 31 -18
31 -29 0 -21 -37 -113 -173 -430 -145 -337 -165 -382 -189 -407 -22 -24 -52
-30 -63 -13 -10 17 71 253 160 465 25 61 58 139 72 175 37 96 94 223 106 238
12 15 16 15 56 1z m136 -64 c20 -8 38 -21 41 -29 7 -18 -23 -95 -175 -456 -60
-140 -123 -292 -142 -337 -28 -69 -38 -83 -57 -83 -27 0 -87 24 -96 38 -3 6 8
43 25 84 51 118 103 246 215 522 57 142 107 263 110 267 8 13 40 11 79 -6z
m145 -50 c17 -9 30 -17 30 -19 0 -45 -364 -914 -387 -923 -6 -3 -28 0 -48 7
-28 9 -33 15 -26 28 5 10 23 55 39 102 26 74 75 197 236 595 69 169 98 225
117 225 5 0 23 -7 39 -15z m135 -67 c24 -13 45 -28 45 -33 0 -19 -346 -854
-361 -869 -13 -15 -119 25 -119 44 0 13 80 210 120 295 10 22 80 192 166 405
58 141 78 180 94 180 6 0 30 -10 55 -22z m145 -54 c26 -6 31 -11 27 -28 -6
-24 -43 -132 -57 -161 -5 -11 -27 -63 -49 -115 -88 -209 -164 -387 -181 -425
-9 -22 -32 -74 -49 -116 -42 -102 -56 -114 -122 -105 -62 8 -89 21 -89 42 0
13 8 14 40 9 46 -8 40 -17 114 175 25 63 70 176 101 250 31 74 81 196 110 270
94 237 80 218 155 204z m135 -65 c22 -12 44 -24 48 -28 4 -5 -10 -48 -31 -97
-22 -49 -52 -120 -67 -159 -15 -38 -45 -115 -68 -170 -167 -408 -185 -450
-202 -454 -18 -3 -115 37 -115 48 0 14 49 135 312 770 21 51 41 97 44 102 9
15 37 10 79 -12z m-1957 -415 c200 -86 315 -134 417 -174 97 -38 411 -168 460
-190 73 -34 379 -162 455 -190 152 -58 235 -97 238 -113 2 -9 -26 -85 -61
-169 -36 -84 -97 -232 -137 -328 -40 -96 -105 -251 -145 -345 -84 -197 -215
-520 -305 -750 -35 -88 -68 -166 -75 -173 -10 -11 -19 -10 -52 7 -70 35 -217
70 -360 85 -338 36 -659 -46 -948 -242 -191 -130 -299 -244 -436 -457 -121
-189 -199 -477 -199 -737 0 -143 42 -379 84 -479 9 -20 -5 -31 -69 -54 -27
-10 -97 -38 -155 -63 -58 -24 -233 -96 -390 -159 -157 -63 -310 -125 -340
-138 -399 -174 -1029 -429 -1038 -420 -3 3 -7 67 -8 143 -4 176 -32 405 -64
507 -5 16 -21 71 -35 120 -14 50 -33 104 -41 122 -8 17 -14 34 -14 38 0 3 -12
32 -26 63 -143 315 -252 476 -481 710 -46 46 -83 87 -83 90 0 4 78 38 173 76
171 68 283 115 344 142 17 8 35 14 40 14 4 1 26 9 48 20 22 11 44 19 48 20 5
0 23 7 40 15 18 7 84 35 147 61 63 26 162 66 220 89 58 24 195 82 305 130 110
48 236 102 280 120 44 18 125 52 180 75 55 23 170 70 255 105 506 206 533 218
553 249 8 12 44 95 82 186 37 91 100 242 140 335 88 206 234 557 349 840 98
244 134 330 243 590 44 105 88 213 98 240 25 67 34 77 62 70 13 -3 104 -40
201 -81z m1542 -1051 c-23 -80 -139 -335 -159 -347 -16 -10 -13 15 8 76 10 29
24 71 31 93 21 69 133 291 137 273 3 -9 -6 -52 -17 -95z m-1069 -1463 c46 -6
132 -25 192 -42 123 -36 124 -38 80 -128 -28 -55 -28 -56 -34 -340 -7 -297
-14 -360 -54 -472 -96 -265 -326 -505 -572 -595 -154 -56 -224 -65 -573 -73
-208 -4 -335 -11 -353 -18 -50 -21 -64 -15 -80 31 -36 101 -49 186 -54 359 -5
160 -4 186 17 274 24 103 48 175 100 289 133 296 477 590 797 680 138 39 373
54 534 35z m-1111 -268 c0 -10 -36 -58 -77 -102 -41 -45 -74 -95 -97 -147 -11
-24 -23 -43 -28 -43 -5 0 -13 -12 -19 -27 -6 -16 -13 -23 -16 -17 -2 6 8 31
21 55 14 24 33 60 42 79 9 19 19 37 23 40 3 3 20 25 36 50 53 80 115 140 115
112z m-3103 -634 c256 -248 474 -618 560 -948 7 -30 18 -71 23 -90 21 -78 40
-243 46 -396 5 -137 4 -170 -11 -213 -9 -28 -24 -55 -33 -60 -38 -19 -42 -4
-42 137 -1 334 -91 697 -249 997 -103 195 -195 319 -370 498 l-116 119 28 24
c15 13 37 24 48 24 12 0 60 -39 116 -92z m-76 -116 c157 -162 249 -291 353
-496 154 -302 221 -564 233 -916 5 -156 4 -177 -11 -189 -24 -20 -257 -9 -358
18 -252 66 -463 220 -590 428 -185 304 -197 691 -32 992 59 108 225 299 260
301 6 0 72 -62 145 -138z"/>
</g>
</svg>
